<?xml version="1.0" encoding="utf-8"?>
<!-- Generator: Adobe Illustrator 25.0.1, SVG Export Plug-In . SVG Version: 6.00 Build 0)  -->
<svg version="1.0" id="Layer_1" xmlns="http://www.w3.org/2000/svg" xmlns:xlink="http://www.w3.org/1999/xlink" x="0px" y="0px"
	 width="100px" height="100px" viewBox="0 0 100 100" enable-background="new 0 0 100 100" xml:space="preserve">
<g opacity="0.9">
	<path fill-rule="evenodd" clip-rule="evenodd" fill="#70B4F4" d="M24.5,24.5l-6.6-6.6l0,47.8c0,5.2-0.3,9.5,2.3,12.1l3.5,3.6
		l57.3-0.3L24.5,24.5"/>
	<polygon fill-rule="evenodd" clip-rule="evenodd" fill="#7CC1FD" points="23.8,81.4 41,98.6 81.4,98.6 81.1,81.1 	"/>
	<path fill-rule="evenodd" clip-rule="evenodd" fill="#305699" d="M17.9,65.8l0-47.8L2.8,49.5C1,53.2,0.3,57.9,5.4,63l14.8,14.8
		C17.6,75.2,18,70.9,17.9,65.8 M81.4,23.8l-3.5-3.6c-2.6-2.6-6.9-2.3-12.1-2.3l-47.8,0l6.6,6.6l56.6,56.6l17.5,0.3V41L81.4,23.8z"/>
	<path fill-rule="evenodd" clip-rule="evenodd" fill="#7CC1FD" d="M65.7,17.9l-47.8,0L49.5,2.8C53.2,1,57.9,0.3,63,5.4l14.8,14.8
		C75.2,17.6,70.9,18,65.7,17.9"/>
</g>
</svg>
